# xmcd
#
# Track frame offsets: 
#        150
#        10735
#        21287
#        41202
#        52540
#        67435
#        76582
#        87807
#        97835
#        111005
#        127310
#        141805
#        152930
#        162645
#        172885
#
# Disc length: 2450 seconds
#
# Revision: 2
# Processed by: cddbd v1.5.2PL0 Copyright (c) Steve Scherf et al.
# Submitted via: ExactAudioCopy v1.0b4
#
DISCID=be09900f
DTITLE=Various Artist - Living the Blues - Whiter shade of Blue CD1
DYEAR=2000
DGENRE=Blues
TTITLE0=Cyril Davies - Country line special
TTITLE1=Alexis Korner - She fooled me
TTITLE2=Long John Baldry and The Hoochie Coochies - I'm your hoochie c
TTITLE2=oochie man
TTITLE3=Graham Bond Quartet - Wade in the water
TTITLE4=Animals - Dimples
TTITLE5=Yardbirds - I ain't got you
TTITLE6=Duffy Power - Little boy blue
TTITLE7=John Mayal and The Bluebreakers - I'm your witchdoctor
TTITLE8=Spencer Davis Group - It hurts me so
TTITLE9=Manfred Mann - I put a spell on you
TTITLE10=Pretty Things - Road runner
TTITLE11=Savoy Brown - Walking by myself
TTITLE12=Rod Stewart - Good morning little school girl
TTITLE13=Fleetwood Mac - Long grey mare
TTITLE14=Chicken Shack - See see baby
EXTD=
EXTT0=
EXTT1=
EXTT2=
EXTT3=
EXTT4=
EXTT5=
EXTT6=
EXTT7=
EXTT8=
EXTT9=
EXTT10=
EXTT11=
EXTT12=
EXTT13=
EXTT14=
PLAYORDER=
